<?xml version="1.0" encoding="utf-8"?>
<svg viewBox="188 0 708 708" width="100%" height="100%" xmlns="http://www.w3.org/2000/svg">
  <path d="M 489.44 72.62 C 461.39 89.14 437.931 103.19 437.309 103.841 C 436.687 104.491 434.301 117.849 432.007 133.524 C 429.713 149.199 427.643 162.6 427.408 163.304 C 427.081 164.281 426.085 164.13 423.21 162.667 C 421.136 161.613 408.679 156.419 395.526 151.127 L 371.613 141.504 L 355.526 150.975 C 337.824 161.415 320.128 171.867 302.44 182.331 L 265.44 204.216 L 265.182 261.658 L 264.924 319.1 L 278.688 332.562 C 286.685 340.382 294.703 348.18 302.741 355.956 L 313.03 365.888 L 310.735 368.032 C 309.473 369.211 304.165 374.162 298.94 379.034 C 293.715 383.905 283.924 393.286 277.182 399.879 L 264.924 411.867 L 265.182 469.359 L 265.44 526.852 L 273.94 532.018 C 287.477 540.246 355.07 580.092 365.94 586.251 C 371.264 589.268 371.552 589.319 374.94 587.839 C 377.617 586.669 402.655 576.023 426.617 565.865 C 427.374 565.544 427.993 566.912 428.351 569.695 C 431.249 592.194 436.288 624.238 437.078 625.19 C 437.982 626.279 460.375 639.711 505.94 666.495 C 515.565 672.152 527.603 679.243 532.692 682.251 L 541.943 687.721 L 578.192 666.311 C 598.128 654.536 621.762 640.654 630.711 635.463 C 645.691 626.773 647.052 625.746 647.866 622.524 C 648.351 620.599 650.444 607.099 652.516 592.524 C 654.588 577.949 656.364 565.904 656.462 565.757 C 656.561 565.61 669.274 570.877 684.713 577.463 L 712.786 589.436 L 721.613 584.178 C 735 576.204 755.303 564.205 788.44 544.685 L 818.44 527.013 L 818.733 469.518 L 819.025 412.024 L 795.483 388.999 C 782.534 376.335 771.94 365.675 771.94 365.31 C 771.94 364.945 776.777 360.009 782.69 354.342 C 790.556 346.784 798.392 339.194 806.198 331.573 L 818.956 319.107 L 818.698 261.662 L 818.44 204.217 L 803.94 195.51 C 795.965 190.721 780.44 181.517 769.44 175.057 C 758.44 168.598 741.477 158.635 731.745 152.918 C 722.012 147.201 713.172 142.524 712.101 142.524 C 711.029 142.524 698.462 147.249 684.175 153.024 C 669.887 158.799 657.797 163.524 657.306 163.524 C 656.816 163.524 654.466 150.811 652.084 135.274 C 649.702 119.737 647.55 106.271 647.303 105.351 C 646.756 103.314 643.702 101.358 614.44 84.303 C 598.711 75.129 582.995 65.932 567.293 56.711 C 554.012 48.908 542.537 42.537 541.793 42.554 C 541.049 42.57 517.49 56.1 489.44 72.62 M 529.94 82.376 C 523.615 86.142 506.74 96.106 492.44 104.518 C 478.14 112.931 465.672 120.536 464.734 121.419 C 463.464 122.614 462.118 129.031 459.467 146.524 C 457.509 159.449 455.43 172.396 454.848 175.295 L 453.789 180.566 L 468.976 206.795 C 477.328 221.221 486.587 237.152 489.551 242.197 C 492.515 247.242 494.94 251.756 494.94 252.227 C 494.94 252.877 474.618 265.574 470.762 267.333 C 470.002 267.68 463.741 257.243 443.378 221.683 C 432.933 203.443 428.726 196.97 426.59 195.856 C 422.998 193.982 375.025 174.524 373.998 174.524 C 373.17 174.524 297.233 219.056 295.19 220.739 C 294.226 221.534 293.94 231.501 293.94 264.35 L 293.94 306.931 L 312.69 325.047 C 323.003 335.011 333.363 344.881 335.712 346.98 L 339.985 350.797 L 376.712 351.107 C 396.913 351.278 415.365 351.441 417.717 351.471 L 421.995 351.524 L 421.717 365.774 L 421.44 380.024 L 380.532 380.285 L 339.623 380.547 L 334.532 385.219 C 331.731 387.788 321.448 397.505 311.679 406.811 L 293.919 423.732 L 294.179 466.862 L 294.44 509.992 L 311.44 520.11 C 324.581 527.914 337.743 535.685 350.923 543.423 L 373.406 556.618 L 377.577 555.025 C 379.87 554.149 392.456 548.761 405.544 543.051 L 429.342 532.67 L 433.026 526.347 C 435.052 522.869 444.005 507.424 452.921 492.024 C 461.837 476.624 469.511 463.623 469.976 463.134 C 470.788 462.278 494.94 476.122 494.94 477.443 C 494.94 478.551 482.028 501.335 467.799 525.333 L 453.969 548.658 L 455.881 560.841 C 456.933 567.542 459.001 580.731 460.477 590.152 L 463.16 607.279 L 467.3 609.585 C 469.577 610.853 487.129 621.258 506.304 632.707 C 525.48 644.156 541.514 653.524 541.935 653.524 C 542.357 653.524 554.343 646.611 568.571 638.162 C 582.799 629.713 600.389 619.327 607.66 615.082 C 619.545 608.143 620.933 607.044 621.409 604.194 C 621.7 602.451 623.536 590.224 625.489 577.024 C 627.441 563.824 629.255 552.124 629.52 551.024 C 629.84 549.693 625.778 541.836 617.37 527.524 C 599.321 496.801 588.94 478.538 588.94 477.509 C 588.94 476.025 612.961 462.136 613.827 463.119 C 614.68 464.088 635.394 499.473 646.309 518.609 C 649.943 524.98 653.71 530.905 654.679 531.775 C 656.178 533.121 676.389 542.218 703.523 553.76 L 710.605 556.773 L 726.523 547.287 C 737.132 540.979 747.771 534.722 758.44 528.515 C 767.24 523.407 777.815 517.14 781.94 514.588 L 789.44 509.948 L 789.718 468.486 C 789.871 445.682 789.754 426.027 789.457 424.808 C 789.161 423.589 778.943 413.131 766.751 401.569 L 744.583 380.546 L 703.512 380.285 L 662.44 380.024 L 662.798 366.024 C 662.995 358.324 663.345 351.824 663.577 351.579 C 663.808 351.333 682.247 350.938 704.553 350.7 L 745.108 350.267 L 766.949 329.313 C 778.961 317.788 789.048 307.684 789.365 306.86 C 789.681 306.035 789.94 286.499 789.94 263.446 L 789.94 221.531 L 784.19 217.974 C 781.027 216.018 767.64 208.081 754.44 200.337 C 741.24 192.592 726.017 183.616 720.61 180.39 C 715.204 177.164 710.446 174.524 710.038 174.524 C 708.697 174.524 659.563 194.559 656.606 196.312 C 654.564 197.523 650.581 203.587 643.004 217.024 C 630.863 238.553 614.756 266.832 614.306 267.408 C 613.848 267.994 588.94 253.243 588.94 252.386 C 588.94 251.972 598.161 235.698 609.431 216.22 L 629.922 180.806 L 627.009 162.415 C 625.484 152.784 623.955 143.154 622.423 133.524 C 621.362 126.867 620.144 122.44 619.095 121.428 C 618.185 120.55 602.59 111.128 584.44 100.491 C 566.29 89.854 549.439 79.885 546.994 78.337 C 544.549 76.79 542.299 75.525 541.994 75.527 C 541.689 75.529 536.265 78.611 529.94 82.376" fill="#db7f0a" fill-rule="evenodd" style=""/>
  <g>
    <path d="M 531.866 137.69 C 511.926 143.343 500.196 164.95 506.826 183.813 C 509.716 192.049 513.006 196.395 520.506 201.903 L 526.966 206.644 L 526.696 232.68 L 526.436 258.715 L 522.936 260.653 C 518.416 263.155 500.456 273.719 476.076 288.217 C 459.716 297.943 456.426 299.552 454.886 298.589 C 453.886 297.962 443.916 292.05 432.746 285.452 C 415.326 275.163 412.456 273.13 412.586 271.171 C 412.946 265.914 409.686 255.306 405.916 249.482 C 398.576 238.123 388.126 232.888 374.076 233.537 C 364.656 233.973 357.506 237.182 350.616 244.07 C 333.706 260.983 337.716 288.995 358.646 300.149 C 369.396 305.883 381.196 306.158 392.596 300.941 L 398.166 298.39 L 405.306 302.738 C 409.226 305.129 418.736 310.814 426.436 315.372 C 434.136 319.93 440.996 324.359 441.686 325.214 C 442.636 326.398 442.936 336.123 442.936 366.063 L 442.936 405.358 L 439.186 407.729 C 437.126 409.034 430.936 412.702 425.436 415.882 C 419.936 419.062 411.406 424.101 406.496 427.079 L 397.556 432.495 L 392.996 430.029 C 365.806 415.317 333.676 440.414 341.346 470.368 C 344.376 482.18 349.976 488.653 362.156 494.414 C 373.196 499.638 385.586 498.333 396.616 490.786 C 405.506 484.701 411.936 472.519 411.936 461.773 C 411.936 458.26 412.416 457.194 414.686 455.633 C 421.816 450.733 455.726 431.386 457.176 431.386 C 458.076 431.386 468.636 437.092 480.626 444.066 C 492.616 451.04 507.156 459.421 512.936 462.69 C 518.706 465.959 524.226 469.323 525.186 470.165 C 526.766 471.548 526.936 474.163 526.936 497.291 L 526.926 522.886 L 522.446 525.722 C 507.726 535.018 501.586 553.493 507.856 569.648 C 513.596 584.475 532.996 595.126 547.566 591.456 C 565.256 587.003 576.186 573.883 576.356 556.886 C 576.496 543.59 570.636 532.804 559.416 525.713 L 554.936 522.886 L 554.936 496.653 L 554.936 470.42 L 559.956 467.874 C 562.726 466.473 574.756 459.56 586.706 452.511 C 620.176 432.765 622.656 431.386 624.606 431.388 C 626.176 431.39 665.166 453.69 668.686 456.598 C 669.376 457.166 669.936 459.591 669.936 461.987 C 669.936 478.125 683.786 494.195 700.346 497.275 C 717.846 500.529 735.796 488.849 740.506 471.15 C 744.036 457.905 739.756 443.564 729.686 434.883 C 718.036 424.832 703.586 423.014 689.466 429.822 C 686.086 431.45 683.996 431.93 682.966 431.317 C 682.126 430.821 672.026 424.875 660.516 418.104 L 639.596 405.793 L 639.836 365.339 C 639.966 343.09 640.376 324.574 640.756 324.193 C 641.296 323.641 669.546 306.778 682.166 299.47 C 684.766 297.97 685.156 298.025 689.666 300.531 C 714.356 314.234 744.546 293.691 741.576 265.224 C 740.346 253.505 732.596 242.071 722.356 236.892 C 717.516 234.442 715.066 233.897 707.396 233.561 C 697.436 233.126 692.806 234.459 684.596 240.127 C 676.486 245.73 669.976 258.066 669.616 268.527 L 669.436 273.731 L 649.436 285.584 C 638.436 292.103 628.446 297.938 627.236 298.549 C 625.296 299.531 621.786 297.733 597.236 283.166 C 581.946 274.094 566.166 264.787 562.186 262.484 L 554.936 258.298 L 554.936 205.756 L 558.186 204.175 C 564.226 201.234 569.766 195.48 573.146 188.617 C 576.126 182.555 576.436 181.093 576.436 172.909 C 576.436 165.077 576.056 163.063 573.556 157.652 C 566.426 142.225 547.626 133.221 531.866 137.69 M 535.216 317.636 C 534.086 318.874 530.116 325.286 526.406 331.886 C 522.686 338.486 515.946 350.186 511.426 357.886 C 497.566 381.498 490.936 393.845 490.936 396.029 C 490.936 397.177 491.866 399.302 493.006 400.751 L 495.076 403.386 L 586.586 403.386 L 588.756 401.072 C 589.956 399.799 590.936 397.623 590.936 396.237 C 590.936 394.838 585.456 384.184 578.616 372.301 C 571.736 360.332 564.856 348.361 557.976 336.386 C 546.506 316.384 545.696 315.386 541.056 315.386 C 538.416 315.386 536.656 316.065 535.216 317.636" fill="#062248" fill-rule="evenodd"/>
    <path style="fill: rgb(6, 34, 72); fill-opacity: 1; fill-rule: evenodd; stroke-linecap: round;" d="M518.727 363.005h42.215v10.876h-42.215z"/>
    <path style="fill: rgb(6, 34, 72); fill-opacity: 1; fill-rule: evenodd; stroke-linecap: round; stroke-miterlimit: 9.2;" d="M534.536 347.039H545V389h-10.464z"/>
    <ellipse style="fill: oklch(0.256 0.079 257); stroke: rgba(0, 0, 0, 0);" cx="706.397" cy="268.664" rx="36.769" ry="36.769"/>
    <ellipse style="stroke-width: 1; fill: oklch(0.256 0.079 257); stroke: rgba(0, 0, 0, 0);" cx="541.093" cy="171.614" rx="36.769" ry="36.769"/>
    <ellipse style="stroke-width: 1; fill: oklch(0.256 0.079 257); stroke: rgba(0, 0, 0, 0);" cx="375.691" cy="268.537" rx="36.769" ry="36.769"/>
    <ellipse style="stroke-width: 1; fill: oklch(0.256 0.079 257); stroke: rgba(0, 0, 0, 0);" cx="375.678" cy="462.588" rx="36.769" ry="36.769"/>
    <ellipse style="stroke-width: 1; fill: oklch(0.256 0.079 257); stroke: rgba(0, 0, 0, 0);" cx="540.858" cy="557.69" rx="36.769" ry="36.769"/>
    <ellipse style="stroke-width: 1; fill: oklch(0.256 0.079 257); stroke: rgba(0, 0, 0, 0);" cx="705.092" cy="462.231" rx="36.769" ry="36.769"/>
  </g>
</svg>